<?xml version="1.0" standalone="no"?>
<!DOCTYPE svg PUBLIC "-//W3C//DTD SVG 20010904//EN"
 "http://www.w3.org/TR/2001/REC-SVG-20010904/DTD/svg10.dtd">
<svg version="1.0" xmlns="http://www.w3.org/2000/svg"
 width="129.000000pt" height="129.000000pt" viewBox="0 0 129.000000 129.000000"
 preserveAspectRatio="xMidYMid meet">
<metadata>
Created by potrace 1.14, written by Peter Selinger 2001-2017
</metadata>
<g transform="translate(0.000000,129.000000) scale(0.100000,-0.100000)"
fill="#000000" stroke="none">
<path d="M642 1262 c-7 -2 -12 -10 -12 -18 0 -10 13 -14 43 -14 62 0 151 -25
237 -67 140 -69 263 -222 305 -383 18 -67 12 -320 -7 -320 -5 0 -8 -7 -8 -15
0 -9 -9 -33 -20 -54 -10 -21 -16 -41 -13 -45 4 -3 2 -6 -3 -6 -5 0 -18 -16
-28 -35 -11 -19 -23 -35 -28 -35 -5 0 -7 -3 -5 -7 2 -5 -18 -29 -45 -55 -26
-26 -48 -45 -48 -43 0 4 -97 -58 -117 -75 -7 -6 -13 -8 -13 -5 0 3 -13 -1 -29
-9 -16 -9 -31 -12 -35 -9 -3 4 -6 -2 -6 -13 0 -16 -2 -17 -10 -4 -8 13 -10 12
-10 -4 0 -12 5 -16 16 -12 9 3 20 6 25 6 6 0 7 5 3 12 -5 7 -2 9 8 6 23 -9
139 49 145 73 3 10 10 19 15 19 5 0 6 -5 2 -12 -4 -7 13 5 39 27 25 21 43 43
40 48 -3 6 -1 7 5 3 6 -4 16 4 23 16 7 13 15 25 18 28 15 13 54 75 54 87 0 7
5 13 10 13 5 0 6 7 3 16 -3 8 -2 12 4 9 6 -3 10 2 10 12 0 11 5 24 10 29 29
29 47 255 27 334 -45 179 -131 304 -273 400 -43 28 -104 58 -142 70 -74 22
-171 39 -190 32z m337 -1135 c-2 -1 -13 -9 -24 -17 -19 -14 -19 -14 -6 3 7 9
18 17 24 17 6 0 8 -1 6 -3z"/>
<path d="M610 1166 c-8 -8 -47 -22 -86 -30 -218 -45 -383 -226 -408 -450 -2
-21 -9 -43 -15 -49 -15 -15 -14 -54 2 -64 7 -4 18 -30 25 -58 36 -143 141
-270 276 -335 77 -36 113 -46 198 -54 58 -6 186 20 241 48 27 15 61 26 76 26
30 0 51 16 51 38 0 8 17 35 38 61 182 219 172 497 -24 698 -67 68 -173 127
-251 139 -28 4 -47 13 -54 25 -12 23 -49 25 -69 5z m51 -58 c56 35 211 -29
309 -127 148 -149 186 -358 100 -548 -38 -83 -104 -163 -131 -156 -23 6 -49
-13 -49 -37 0 -39 -158 -92 -270 -91 -218 2 -415 157 -470 369 -9 35 -8 45 5
58 19 19 19 38 0 58 -29 29 -10 137 41 239 52 102 186 205 304 235 71 18 93
19 118 3 19 -11 28 -12 43 -3z"/>
<path d="M746 1039 c3 -5 -1 -9 -8 -9 -10 0 -9 -3 2 -9 8 -6 17 -8 21 -5 4 2
10 0 14 -6 4 -6 11 -8 16 -4 6 3 16 -1 22 -9 7 -9 19 -17 27 -19 8 -2 23 -13
33 -26 10 -12 22 -20 25 -18 10 6 32 -21 24 -28 -3 -4 1 -4 10 -1 14 6 13 9
-6 28 -13 14 -24 18 -28 12 -8 -10 -12 0 -8 20 1 6 -2 7 -5 3 -4 -4 -16 4 -27
17 -10 14 -22 24 -26 23 -4 -1 -26 8 -50 19 -23 12 -40 17 -36 12z"/>
<path d="M655 950 c-3 -5 -1 -10 4 -10 6 0 11 5 11 10 0 6 -2 10 -4 10 -3 0
-8 -4 -11 -10z"/>
<path d="M942 891 c2 -7 7 -12 11 -12 12 1 9 15 -3 20 -7 2 -11 -2 -8 -8z"/>
<path d="M969 862 c-1 -4 -1 -14 0 -22 0 -8 -15 -33 -35 -55 -33 -37 -35 -38
-33 -15 0 14 1 40 0 59 -1 33 -2 34 -15 16 -8 -11 -11 -27 -7 -35 4 -8 7 -54
6 -102 -1 -49 2 -88 7 -88 4 0 8 19 8 43 0 23 5 49 10 57 9 13 12 12 22 -5 7
-11 11 -21 10 -22 -1 -2 6 -11 17 -22 10 -10 23 -27 29 -37 6 -10 13 -16 17
-12 4 3 -9 32 -29 62 -20 31 -36 62 -36 69 0 7 13 28 29 47 23 27 29 30 27 15
-3 -21 13 -65 24 -65 3 0 6 -14 6 -32 -1 -20 5 -33 14 -35 13 -4 13 -3 0 6
-13 10 -13 12 0 21 12 7 12 10 1 10 -7 0 -11 6 -8 14 3 8 -1 20 -9 27 -8 7
-13 18 -10 25 2 6 2 15 -2 19 -7 7 -8 12 -11 39 -1 14 -30 31 -32 18z"/>
<path d="M250 850 c0 -5 13 -10 28 -10 l28 0 -1 -110 c-1 -60 2 -110 7 -110
10 0 10 9 8 128 l-1 92 31 0 c18 0 29 4 25 10 -3 6 -33 10 -66 10 -33 0 -59
-4 -59 -10z"/>
<path d="M410 740 c0 -66 4 -120 9 -120 5 0 8 16 7 36 -1 20 4 43 10 52 9 13
17 6 48 -42 43 -67 60 -69 21 -3 l-26 45 26 26 c56 56 16 126 -71 126 -24 0
-24 -1 -24 -120z m81 90 c21 -12 25 -50 9 -81 -7 -13 -21 -19 -43 -19 l-32 0
2 52 c1 29 2 54 2 56 2 6 45 1 62 -8z"/>
<path d="M586 758 c-15 -57 -30 -111 -32 -120 -3 -10 -1 -18 5 -18 5 0 12 14
16 30 6 27 10 30 46 30 36 0 40 -3 46 -30 5 -26 23 -44 23 -22 0 7 -44 176
-56 215 -11 34 -22 15 -48 -85z m57 -9 l14 -56 -33 -1 c-22 -1 -34 3 -34 11 0
22 33 123 36 112 2 -5 9 -35 17 -66z"/>
<path d="M736 841 c-12 -13 -17 -37 -18 -82 -1 -98 0 -107 22 -129 34 -34 108
-7 97 36 -4 17 -6 17 -12 -3 -13 -42 -78 -42 -89 0 -9 34 -7 123 3 150 17 44
63 40 89 -8 11 -20 11 -20 12 1 0 48 -71 72 -104 35z"/>
<path d="M1027 653 c3 -7 8 -13 12 -13 4 0 8 6 8 13 0 8 -6 14 -13 14 -7 0
-10 -6 -7 -14z"/>
<path d="M1027 623 c-2 -5 -3 -21 -2 -38 2 -39 -13 -59 -31 -44 -8 6 -25 8
-40 5 -32 -8 -30 -46 4 -61 12 -5 22 -16 22 -23 0 -9 -5 -10 -19 -2 -51 27
-49 -5 2 -33 17 -11 29 -15 25 -11 -4 4 -1 12 7 18 8 6 16 23 17 37 2 15 10
34 17 43 12 14 11 16 -5 10 -18 -7 -18 -6 -3 12 9 10 14 25 12 32 -3 6 -1 12
5 12 5 0 9 7 9 15 0 8 -4 12 -9 9 -4 -3 -8 -1 -8 5 0 5 6 12 13 14 9 4 9 6 0
6 -6 1 -14 -2 -16 -6z m-42 -103 c4 -6 11 -8 16 -5 10 7 13 -8 3 -18 -9 -8
-44 11 -44 23 0 13 17 13 25 0z"/>
<path d="M434 565 c-4 -8 -12 -15 -20 -15 -10 0 -14 -15 -14 -60 l0 -60 36 0
c24 0 34 4 32 13 -3 6 -10 13 -16 13 -7 1 -16 2 -22 3 -22 2 -9 21 15 21 14 0
25 5 25 10 0 6 -12 10 -26 10 -25 0 -31 24 -6 26 7 1 17 2 22 3 17 2 11 21 -6
21 -14 0 -14 3 -4 15 9 11 9 15 1 15 -6 0 -14 -7 -17 -15z"/>
<path d="M278 487 l-3 -64 40 9 c51 12 65 24 65 59 0 33 -31 59 -71 59 -26 0
-27 -2 -31 -63z m72 3 c0 -19 -6 -29 -20 -33 -11 -3 -21 -1 -21 4 -8 59 -5 69
21 62 14 -4 20 -14 20 -33z"/>
<path d="M501 524 c-12 -15 -21 -30 -21 -34 0 -4 9 -19 21 -34 24 -31 59 -34
84 -6 14 15 15 20 4 20 -8 0 -21 -4 -28 -9 -20 -13 -51 5 -51 28 0 29 25 45
49 32 33 -18 46 -13 26 9 -25 28 -60 25 -84 -6z"/>
<path d="M619 538 c-6 -67 -3 -108 8 -108 7 0 13 11 13 25 0 20 5 25 25 25 20
0 25 -5 25 -25 0 -14 5 -25 10 -25 6 0 10 27 10 60 0 33 -4 60 -10 60 -5 0
-10 -11 -10 -25 0 -20 -5 -25 -25 -25 -20 0 -25 5 -25 25 0 25 -19 36 -21 13z"/>
<path d="M739 540 c0 -5 -1 -26 -1 -45 0 -65 0 -65 37 -65 19 0 35 5 35 10 0
6 -4 11 -10 11 -5 1 -15 2 -22 3 -25 2 -19 26 7 26 15 0 24 4 20 10 -3 6 -15
10 -26 10 -10 0 -19 7 -19 15 0 8 3 14 8 14 21 -4 42 2 42 11 0 6 -16 10 -35
10 -19 0 -35 -4 -36 -10z"/>
<path d="M820 536 c0 -8 8 -13 18 -12 14 1 18 -8 20 -46 3 -48 21 -68 23 -25
3 63 5 72 18 72 8 0 16 6 19 13 2 8 -11 12 -47 12 -37 0 -51 -4 -51 -14z"/>
<path d="M955 400 c3 -5 8 -10 11 -10 2 0 4 5 4 10 0 6 -5 10 -11 10 -5 0 -7
-4 -4 -10z"/>
<path d="M930 386 c0 -2 7 -7 16 -10 8 -3 12 -2 9 4 -6 10 -25 14 -25 6z"/>
<path d="M913 355 c-10 -11 -9 -13 6 -12 11 1 17 7 14 14 -6 16 -5 16 -20 -2z"/>
<path d="M436 272 c-3 -5 1 -9 9 -9 8 0 12 4 9 9 -3 4 -7 8 -9 8 -2 0 -6 -4
-9 -8z"/>
<path d="M788 253 c6 -2 18 -2 25 0 6 3 1 5 -13 5 -14 0 -19 -2 -12 -5z"/>
<path d="M736 242 c-2 -4 4 -8 14 -8 10 0 16 4 14 8 -3 4 -9 8 -14 8 -5 0 -11
-4 -14 -8z"/>
<path d="M16 548 c3 -5 10 -6 15 -3 13 9 11 12 -6 12 -8 0 -12 -4 -9 -9z"/>
<path d="M95 320 c-3 -6 1 -7 9 -4 18 7 21 14 7 14 -6 0 -13 -4 -16 -10z"/>
<path d="M110 296 c0 -2 7 -9 15 -16 13 -11 14 -10 9 4 -5 14 -24 23 -24 12z"/>
<path d="M140 260 c-9 -6 -10 -10 -3 -10 6 0 15 5 18 10 8 12 4 12 -15 0z"/>
<path d="M156 241 c-4 -5 -2 -12 3 -15 5 -4 12 -2 15 3 4 5 2 12 -3 15 -5 4
-12 2 -15 -3z"/>
<path d="M180 213 c0 -18 27 -36 35 -23 4 6 4 14 1 17 -3 4 -6 0 -6 -8 -1 -10
-5 -8 -15 5 -8 11 -15 15 -15 9z"/>
<path d="M228 173 c6 -2 10 -9 6 -14 -3 -5 0 -8 8 -7 7 2 12 -2 11 -8 -1 -7 6
-10 18 -7 18 5 17 7 -11 24 -17 11 -34 19 -38 18 -4 0 -1 -3 6 -6z"/>
<path d="M287 120 c24 -20 81 -49 86 -43 4 3 7 2 7 -4 0 -10 28 -23 63 -28 9
-1 20 -4 25 -5 4 -1 10 -2 15 -1 4 0 7 -5 7 -11 0 -9 4 -8 10 2 6 10 10 11 10
3 0 -7 10 -13 23 -13 12 0 39 -1 60 -3 20 -2 37 0 37 4 0 5 5 9 11 9 5 0 8 -4
5 -9 -3 -5 11 -7 32 -5 20 3 49 5 64 6 15 1 30 8 32 15 5 13 -25 15 -49 2 -11
-5 -190 -3 -215 3 -8 2 -19 6 -25 9 -5 4 -18 5 -27 4 -9 -2 -22 3 -28 10 -6 8
-17 12 -24 9 -7 -3 -18 2 -25 10 -7 8 -20 12 -28 9 -12 -5 -14 -3 -8 7 5 8 4
11 -3 6 -5 -3 -12 -1 -14 6 -2 6 -14 12 -26 13 -13 1 -19 -1 -15 -5z"/>
</g>
</svg>
