<svg width="28" height="28" viewBox="0 0 28 28" fill="none" xmlns="http://www.w3.org/2000/svg">
<g clip-path="url(#clip0_995_28821)">
<path d="M13.8 8C15.4569 8 16.8 6.65685 16.8 5C16.8 3.34315 15.4569 2 13.8 2C12.1431 2 10.8 3.34315 10.8 5C10.8 6.65685 12.1431 8 13.8 8Z" stroke="black" stroke-linecap="round" stroke-linejoin="round"/>
<path d="M13.3 5.001L14.3 4.001" stroke="black" stroke-linecap="round" stroke-linejoin="round"/>
<path fill-rule="evenodd" clip-rule="evenodd" d="M18 13.001C18 10.7919 16.2091 9.001 14 9.001C11.7909 9.001 10 10.7919 10 13.001V24.001C10 24.5533 10.4477 25.001 11 25.001H17C17.5523 25.001 18 24.5533 18 24.001V13.001Z" stroke="black" stroke-linecap="round" stroke-linejoin="round"/>
<path d="M10 15.001H18" stroke="black" stroke-linecap="round" stroke-linejoin="round"/>
<path d="M10 21.001H18" stroke="black" stroke-linecap="round" stroke-linejoin="round"/>
</g>
</svg>
