<svg width="19" height="20" viewBox="0 0 19 20" fill="none" xmlns="http://www.w3.org/2000/svg">
<g id="map-pin-2" clip-path="url(#clip0_11992_1257)">
<path id="Ic&#195;&#180;ne" d="M14.5382 14.2461L9.5 19.2843L4.46184 14.2461C3.4654 13.2497 2.78681 11.9801 2.5119 10.598C2.23699 9.21588 2.37809 7.78329 2.91737 6.48137C3.45665 5.17945 4.36988 4.06668 5.54157 3.28378C6.71327 2.50088 8.09081 2.08301 9.5 2.08301C10.9092 2.08301 12.2867 2.50088 13.4584 3.28378C14.6301 4.06668 15.5434 5.17945 16.0826 6.48137C16.6219 7.78329 16.763 9.21588 16.4881 10.598C16.2132 11.9801 15.5346 13.2497 14.5382 14.2461V14.2461ZM9.5 10.7913C9.91993 10.7913 10.3227 10.6245 10.6196 10.3275C10.9165 10.0306 11.0833 9.62787 11.0833 9.20795C11.0833 8.78802 10.9165 8.38529 10.6196 8.08836C10.3227 7.79143 9.91993 7.62461 9.5 7.62461C9.08008 7.62461 8.67735 7.79143 8.38042 8.08836C8.08348 8.38529 7.91667 8.78802 7.91667 9.20795C7.91667 9.62787 8.08348 10.0306 8.38042 10.3275C8.67735 10.6245 9.08008 10.7913 9.5 10.7913Z" fill="#000091"/>
</g>
<defs>
<clipPath id="clip0_11992_1257">
<rect width="19" height="19" fill="white" transform="translate(0 0.5)"/>
</clipPath>
</defs>
</svg>
