<svg width="28" height="28" viewBox="0 0 28 28" fill="none" xmlns="http://www.w3.org/2000/svg">
<g clip-path="url(#clip0_995_28783)">
<path fill-rule="evenodd" clip-rule="evenodd" d="M25.278 21.128C25.3848 21.982 25.1196 22.8408 24.5498 23.4859C23.9801 24.131 23.1607 24.5003 22.3 24.5H6.10005C5.23937 24.5003 4.42001 24.131 3.85028 23.4859C3.28054 22.8408 3.01532 21.982 3.12205 21.128L4.70005 8.5H23.7L25.278 21.128Z" stroke="black" stroke-linecap="round" stroke-linejoin="round"/>
<path d="M8.20004 6H6.76604C6.41486 6.00028 6.08955 6.18475 5.90904 6.486L4.70004 8.5H23.7L22.491 6.486C22.3105 6.18475 21.9852 6.00028 21.634 6H20.2" stroke="black" stroke-linecap="round" stroke-linejoin="round"/>
<path fill-rule="evenodd" clip-rule="evenodd" d="M18.2 5.5C18.2 3.29086 16.4092 1.5 14.2 1.5C11.9909 1.5 10.2 3.29086 10.2 5.5V8.5H18.2V5.5Z" stroke="black" stroke-linecap="round" stroke-linejoin="round"/>
<path d="M13.9955 20.2045C13.4425 20.2045 12.9406 20.1004 12.4898 19.892C12.0391 19.6799 11.6811 19.375 11.416 18.9773C11.1508 18.5758 11.0182 18.0909 11.0182 17.5227C11.0182 17.0227 11.1167 16.6174 11.3137 16.3068C11.5106 15.9924 11.7739 15.7462 12.1035 15.5682C12.433 15.3902 12.7966 15.2576 13.1944 15.1705C13.5959 15.0795 13.9993 15.0076 14.4046 14.9545C14.9349 14.8864 15.3648 14.8352 15.6944 14.8011C16.0277 14.7633 16.2701 14.7008 16.4216 14.6136C16.5769 14.5265 16.6546 14.375 16.6546 14.1591V14.1136C16.6546 13.553 16.5012 13.1174 16.1944 12.8068C15.8913 12.4962 15.4311 12.3409 14.8137 12.3409C14.1735 12.3409 13.6716 12.4811 13.308 12.7614C12.9444 13.0417 12.6887 13.3409 12.541 13.6591L11.2682 13.2045C11.4955 12.6742 11.7985 12.2614 12.1773 11.9659C12.5599 11.6667 12.9766 11.4583 13.4273 11.3409C13.8819 11.2197 14.3288 11.1591 14.7682 11.1591C15.0485 11.1591 15.3705 11.1932 15.7341 11.2614C16.1016 11.3258 16.4557 11.4602 16.7966 11.6648C17.1413 11.8693 17.4273 12.178 17.6546 12.5909C17.8819 13.0038 17.9955 13.5568 17.9955 14.25V20H16.6546V18.8182H16.5864C16.4955 19.0076 16.344 19.2102 16.1319 19.4261C15.9197 19.642 15.6375 19.8258 15.2853 19.9773C14.933 20.1288 14.5031 20.2045 13.9955 20.2045ZM14.2 19C14.7303 19 15.1773 18.8958 15.541 18.6875C15.9084 18.4792 16.1849 18.2102 16.3705 17.8807C16.5599 17.5511 16.6546 17.2045 16.6546 16.8409V15.6136C16.5978 15.6818 16.4728 15.7443 16.2796 15.8011C16.0902 15.8542 15.8705 15.9015 15.6205 15.9432C15.3743 15.9811 15.1338 16.0152 14.8989 16.0455C14.6678 16.072 14.4803 16.0947 14.3364 16.1136C13.9879 16.1591 13.6622 16.233 13.3591 16.3352C13.0599 16.4337 12.8175 16.5833 12.6319 16.7841C12.45 16.9811 12.3591 17.25 12.3591 17.5909C12.3591 18.0568 12.5315 18.4091 12.8762 18.6477C13.2247 18.8826 13.666 19 14.2 19Z" fill="black"/>
</g>
</svg>
