<svg width="28" height="28" viewBox="0 0 28 28" fill="none" xmlns="http://www.w3.org/2000/svg">
<g clip-path="url(#clip0_995_28796)">
<path d="M2.72059 19.1316C2.30927 18.7799 2.05298 18.2804 2.00715 17.7411C1.94801 17.0313 2.2589 16.3412 2.82969 15.9152L5.20533 13.6444L6.94026 9.78843C7.26634 9.06621 7.95915 8.57826 8.749 8.51451L14.8694 8.0075C15.5775 7.94862 16.2698 8.23887 16.7241 8.78512L20.1287 12.4005L24.2265 13.5706C25.4234 13.8247 26.1944 14.993 25.9571 16.1934C25.7625 17.1727 24.9424 17.9046 23.9473 17.9871L23.2114 18.0481" stroke="black" stroke-width="1.04348" stroke-linecap="round" stroke-linejoin="round"/>
<path d="M19.0827 18.3904L10.7289 19.0835" stroke="black" stroke-width="1.04348" stroke-linecap="round" stroke-linejoin="round"/>
<path fill-rule="evenodd" clip-rule="evenodd" d="M19.0602 18.9295C19.1581 20.1068 20.1919 20.9819 21.3692 20.8841C22.5465 20.7862 23.4217 19.7526 23.324 18.5753C23.2263 17.398 22.1928 16.5227 21.0155 16.6202C20.4499 16.667 19.9261 16.9367 19.5594 17.3698C19.1927 17.8029 19.0131 18.364 19.0602 18.9295Z" stroke="black" stroke-width="1.04348" stroke-linecap="round" stroke-linejoin="round"/>
<path fill-rule="evenodd" clip-rule="evenodd" d="M2.46815 19.8216C2.46815 19.2308 2.94704 18.7519 3.53778 18.7519H4.07259C4.35403 18.7526 4.59794 18.5572 4.65875 18.2824C4.88058 17.309 5.74618 16.6185 6.74452 16.6185C7.74285 16.6185 8.60845 17.309 8.83029 18.2824C8.89263 18.5566 9.13624 18.7514 9.41751 18.7519H9.95233C10.5431 18.7519 11.022 19.2308 11.022 19.8216C11.022 20.4123 10.5431 20.8912 9.95233 20.8912H3.53457C2.94509 20.8894 2.46815 20.411 2.46815 19.8216Z" stroke="black" stroke-width="1.04348" stroke-linecap="round" stroke-linejoin="round"/>
<path fill-rule="evenodd" clip-rule="evenodd" d="M16.9744 13.1995L14.9624 10.6613C14.7216 10.361 14.3469 10.2005 13.9634 10.2334L10.8465 10.488C10.7051 10.4997 10.5741 10.5672 10.4824 10.6755C10.3907 10.7838 10.3459 10.9242 10.3577 11.0656L10.5342 13.1974C10.5459 13.3388 10.6134 13.4698 10.7217 13.5615C10.83 13.6532 10.9704 13.698 11.1118 13.6862L16.9744 13.1995Z" stroke="black" stroke-width="1.04348" stroke-linecap="round" stroke-linejoin="round"/>
</g>
</svg>
