<svg width="19" height="20" viewBox="0 0 19 20" fill="none" xmlns="http://www.w3.org/2000/svg">
<g id="truck" clip-path="url(#clip0_11992_1284)">
<path id="Vector" d="M13.4582 6.83301H15.8332L18.2082 10.044V14.7497H16.5971C16.503 15.4102 16.1738 16.0145 15.6698 16.4517C15.1659 16.8889 14.5212 17.1296 13.854 17.1296C13.1869 17.1296 12.5421 16.8889 12.0382 16.4517C11.5343 16.0145 11.205 15.4102 11.1109 14.7497H7.09713C7.00302 15.4102 6.67376 16.0145 6.16983 16.4517C5.66591 16.8889 5.02116 17.1296 4.354 17.1296C3.68685 17.1296 3.0421 16.8889 2.53818 16.4517C2.03425 16.0145 1.70499 15.4102 1.61088 14.7497H0.791504V5.24967C0.791504 5.03971 0.874911 4.83835 1.02338 4.68988C1.17184 4.54142 1.37321 4.45801 1.58317 4.45801H12.6665C12.8765 4.45801 13.0778 4.54142 13.2263 4.68988C13.3748 4.83835 13.4582 5.03971 13.4582 5.24967V6.83301ZM13.4582 8.41634V10.7913H16.6248V10.5657L15.0352 8.41634H13.4582Z" fill="#000091"/>
</g>
<defs>
<clipPath id="clip0_11992_1284">
<rect width="19" height="19" fill="white" transform="translate(0 0.5)"/>
</clipPath>
</defs>
</svg>
