<svg width="32" height="37" viewBox="0 0 32 37" fill="none" xmlns="http://www.w3.org/2000/svg">
<g id="pollution-barrel">
<path id="Path" d="M3.61304 36.0075V3.83008" stroke="#161616" stroke-width="0.967742" stroke-linecap="round" stroke-linejoin="round"/>
<path id="Path_2" d="M27.9448 3.83008V36.0075" stroke="#161616" stroke-width="0.967742" stroke-linecap="round" stroke-linejoin="round"/>
<path id="Path_3" d="M0.571533 3.83008H30.9863" stroke="#161616" stroke-width="0.967742" stroke-linecap="round" stroke-linejoin="round"/>
<path id="Path_4" d="M0.571533 36.0078H30.9863" stroke="#161616" stroke-width="0.967742" stroke-linecap="round" stroke-linejoin="round"/>
<path id="Path_5" d="M24.1431 25.2822H30.9864" stroke="#161616" stroke-width="0.967742" stroke-linecap="round" stroke-linejoin="round"/>
<path id="Path_6" d="M0.571533 25.2822H8.17522" stroke="#161616" stroke-width="0.967742" stroke-linecap="round" stroke-linejoin="round"/>
<path id="Path_7" d="M24.9033 14.5557H30.9863" stroke="#161616" stroke-width="0.967742" stroke-linecap="round" stroke-linejoin="round"/>
<path id="Path_8" d="M0.571533 14.5557H6.65448" stroke="#161616" stroke-width="0.967742" stroke-linecap="round" stroke-linejoin="round"/>
<path id="Path_9" d="M26.424 3.83014V1.53175C26.424 1.10863 26.0836 0.765625 25.6636 0.765625H21.1014C20.6815 0.765625 20.3411 1.10863 20.3411 1.53175V3.83014" stroke="#161616" stroke-width="0.967742" stroke-linecap="round" stroke-linejoin="round"/>
<path id="Path_10" d="M15.7788 24.5156V26.814" stroke="#161616" stroke-width="0.967742" stroke-linecap="round" stroke-linejoin="round"/>
<path id="Path_11" d="M12.7375 26.8138V23.9392C10.8652 23.0996 9.66909 21.2172 9.696 19.1525C9.696 15.7675 12.4194 13.0234 15.779 13.0234C19.1385 13.0234 21.8619 15.7675 21.8619 19.1525C21.889 21.2168 20.6927 23.099 18.8204 23.9377V26.8138" stroke="#161616" stroke-width="0.967742" stroke-linecap="round" stroke-linejoin="round"/>
<path id="Path_12" d="M17.6799 18.3867C17.8899 18.3867 18.0601 18.5582 18.0601 18.7698" stroke="#161616" stroke-width="0.967742" stroke-linecap="round" stroke-linejoin="round"/>
<path id="Path_13" d="M17.2996 18.7698C17.2996 18.5582 17.4698 18.3867 17.6797 18.3867" stroke="#161616" stroke-width="0.967742" stroke-linecap="round" stroke-linejoin="round"/>
<path id="Path_14" d="M17.6797 19.1526C17.4698 19.1526 17.2996 18.9811 17.2996 18.7695" stroke="#161616" stroke-width="0.967742" stroke-linecap="round" stroke-linejoin="round"/>
<path id="Path_15" d="M18.0601 18.7695C18.0601 18.9811 17.8899 19.1526 17.6799 19.1526" stroke="#161616" stroke-width="0.967742" stroke-linecap="round" stroke-linejoin="round"/>
<path id="Path_16" d="M13.8779 18.3867C14.0879 18.3867 14.2581 18.5582 14.2581 18.7698" stroke="#161616" stroke-width="0.967742" stroke-linecap="round" stroke-linejoin="round"/>
<path id="Path_17" d="M13.4978 18.7698C13.4978 18.5582 13.668 18.3867 13.878 18.3867" stroke="#161616" stroke-width="0.967742" stroke-linecap="round" stroke-linejoin="round"/>
<path id="Path_18" d="M13.878 19.1526C13.668 19.1526 13.4978 18.9811 13.4978 18.7695" stroke="#161616" stroke-width="0.967742" stroke-linecap="round" stroke-linejoin="round"/>
<path id="Path_19" d="M14.2581 18.7695C14.2581 18.9811 14.0879 19.1526 13.8779 19.1526" stroke="#161616" stroke-width="0.967742" stroke-linecap="round" stroke-linejoin="round"/>
</g>
</svg>
