<svg width="16" height="16" viewBox="0 0 16 16" fill="none" xmlns="http://www.w3.org/2000/svg">
<g id="weight">
<path id="Vector" d="M3.31417 6.87867L2.02855 12.8779L2.0287 12.8777C1.9471 13.2576 2.04155 13.654 2.28591 13.956C2.53012 14.2581 2.89792 14.4335 3.28634 14.4333H12.7137C13.1021 14.4336 13.4699 14.2581 13.7141 13.956C13.9584 13.654 14.0529 13.2576 13.9713 12.8777L12.6857 6.87852L12.6858 6.87867C12.624 6.59097 12.4654 6.33331 12.2366 6.14844C12.0076 5.96356 11.7223 5.86283 11.4282 5.86298H10.224C10.5282 5.33973 10.6378 4.72577 10.534 4.12945C10.43 3.53313 10.1189 2.9927 9.65564 2.60306C9.19235 2.21357 8.60632 2 8.00104 2C7.39576 2 6.80989 2.21357 6.34659 2.60306C5.88315 2.9927 5.57213 3.53313 5.46825 4.12945C5.36423 4.72577 5.47393 5.33973 5.77822 5.86298H4.57184C4.27771 5.86283 3.99239 5.96356 3.76344 6.14844C3.53462 6.33331 3.37605 6.59095 3.31419 6.87867H3.31417ZM12.7136 13.148H3.28624L4.57186 7.14879H11.4281L12.7136 13.148ZM6.71436 4.5777C6.71436 4.2368 6.84991 3.90979 7.09098 3.66872C7.33205 3.4275 7.65907 3.29209 7.99997 3.29209C8.34087 3.29209 8.66788 3.4275 8.90896 3.66872C9.15002 3.90979 9.28558 4.2368 9.28558 4.5777C9.28558 4.91861 9.15002 5.24561 8.90896 5.48669C8.66788 5.72776 8.34087 5.86316 7.99997 5.86316C7.65907 5.86316 7.33206 5.72775 7.09098 5.48669C6.84991 5.24562 6.71436 4.9186 6.71436 4.5777Z" fill="#161616"/>
</g>
</svg>
