<svg width="28" height="28" viewBox="0 0 28 28" fill="none" xmlns="http://www.w3.org/2000/svg">
<g clip-path="url(#clip0_1204_23182)">
<path fill-rule="evenodd" clip-rule="evenodd" d="M13.7492 17.2276C13.9202 17.2835 14.05 17.4241 14.092 17.5991C14.134 17.774 14.0822 17.9582 13.9552 18.0856L11.5172 20.5226C11.5372 20.5026 11.7502 20.6626 11.8742 20.7886C12.4475 21.3628 12.7678 22.1422 12.7638 22.9535C12.7599 23.7649 12.4321 24.5411 11.8532 25.1096C10.6389 26.3025 8.68999 26.2931 7.48723 25.0886C6.76099 24.3612 6.44944 23.3171 6.65823 22.3106C5.33796 22.5887 3.99272 21.9613 3.35739 20.771C2.72205 19.5807 2.9494 18.1138 3.91523 17.1716C5.15121 15.9863 7.10928 16.0108 8.31523 17.2266C8.47469 17.3829 8.61684 17.5559 8.73923 17.7426L11.1552 15.3276C11.2844 15.1984 11.4722 15.147 11.6492 15.1924C11.8262 15.2378 11.9662 15.3732 12.0172 15.5486L12.3752 16.7776L13.7492 17.2276Z" stroke="black" stroke-linecap="round" stroke-linejoin="round"/>
<path fill-rule="evenodd" clip-rule="evenodd" d="M18.3482 14.2626C18.4482 14.4098 18.6167 14.4954 18.7945 14.4894C18.9723 14.4833 19.1346 14.3863 19.2242 14.2326L21.0722 11.0556C21.0582 11.0806 21.2722 11.2446 21.4202 11.3336C22.1219 11.7404 22.9569 11.8501 23.7398 11.6383C24.5226 11.4265 25.1884 10.9107 25.5892 10.2056C26.2644 9.02847 26.0916 7.54845 25.1634 6.55847C24.2353 5.56849 22.7694 5.30073 21.5512 5.89864C21.4737 4.54439 20.5178 3.40101 19.1987 3.08488C17.8795 2.76875 16.5091 3.35462 15.8262 4.52664C15.0234 6.05263 15.5717 7.94032 17.0672 8.79864C17.2593 8.91291 17.4632 9.00611 17.6752 9.07664L15.8412 12.2296C15.7495 12.3857 15.7462 12.5784 15.8326 12.7374C15.919 12.8965 16.0824 12.9986 16.2632 13.0066L17.5382 13.0686L18.3482 14.2626Z" stroke="black" stroke-linecap="round" stroke-linejoin="round"/>
<path d="M9.00224 10.9986H7.00224" stroke="black" stroke-width="0.6" stroke-linecap="round" stroke-linejoin="round"/>
<path d="M9.88124 8.87764L8.46624 7.46264" stroke="black" stroke-width="0.6" stroke-linecap="round" stroke-linejoin="round"/>
<path d="M12.0022 7.99864V5.99864" stroke="black" stroke-width="0.6" stroke-linecap="round" stroke-linejoin="round"/>
<path d="M20.0022 17.9986H22.0022" stroke="black" stroke-width="0.6" stroke-linecap="round" stroke-linejoin="round"/>
<path d="M19.1232 20.1196L20.5382 21.5346" stroke="black" stroke-width="0.6" stroke-linecap="round" stroke-linejoin="round"/>
<path d="M17.0022 20.9986V22.9986" stroke="black" stroke-linecap="round" stroke-linejoin="round"/>
</g>
</svg>
