<svg width="19" height="20" viewBox="0 0 19 20" fill="none" xmlns="http://www.w3.org/2000/svg">
<g id="mdi:account-hard-hat-outline">
<path id="Vector" d="M12.6665 7.62467C12.6665 11.8443 6.33317 11.8443 6.33317 7.62467H7.9165C7.9165 9.73842 11.0832 9.73842 11.0832 7.62467M15.8332 14.7497V17.1247H3.1665V14.7497C3.1665 12.6359 7.38609 11.583 9.49984 11.583C11.6136 11.583 15.8332 12.6359 15.8332 14.7497ZM14.329 14.7497C14.329 14.243 11.8511 13.0872 9.49984 13.0872C7.14859 13.0872 4.67067 14.243 4.67067 14.7497V15.6205H14.329M9.89567 2.08301C10.1173 2.08301 10.2915 2.25717 10.2915 2.47884V4.85384H11.0832V2.87467C11.6434 3.13396 12.1128 3.55566 12.4305 4.08504C12.7481 4.61442 12.8993 5.22705 12.8644 5.84342C12.8644 5.84342 13.4186 5.95426 13.4582 6.83301H5.5415C5.5415 5.95426 6.13525 5.84342 6.13525 5.84342C6.10038 5.22705 6.25157 4.61442 6.5692 4.08504C6.88683 3.55566 7.35623 3.13396 7.9165 2.87467V4.85384H8.70817V2.47884C8.70817 2.25717 8.88234 2.08301 9.104 2.08301" fill="#000091"/>
</g>
</svg>
